<svg width="167" height="171" xmlns="http://www.w3.org/2000/svg" xmlns:xlink="http://www.w3.org/1999/xlink" xml:space="preserve" overflow="hidden"><g transform="translate(-2125 -682)"><path d="M2277.5 786.5C2277.5 814.864 2265.62 838.5 2238.29 838.5 2177.71 838.5 2177.71 838.5 2177.71 838.5 2151.57 838.5 2138.5 814.864 2138.5 786.5" stroke="#595959" stroke-width="6.875" stroke-linecap="round" stroke-linejoin="round" stroke-miterlimit="10" fill="none" fill-rule="evenodd"/><path d="M2128.5 785.5 2288.5 785.5" stroke="#595959" stroke-width="6.875" stroke-linecap="round" stroke-linejoin="round" stroke-miterlimit="10" fill="none" fill-rule="evenodd"/><path d="M0 0 5.99984 9.99997" stroke="#595959" stroke-width="6.875" stroke-linecap="round" stroke-linejoin="round" stroke-miterlimit="10" fill="none" fill-rule="evenodd" transform="matrix(1 0 0 -1 2151.5 849.5)"/><path d="M2264.5 849.5 2260.5 839.5" stroke="#595959" stroke-width="6.875" stroke-linecap="round" stroke-linejoin="round" stroke-miterlimit="10" fill="none" fill-rule="evenodd"/><path d="M2237.5 705.769C2237.5 695.038 2245.74 685.5 2257.5 685.5 2257.5 685.5 2257.5 685.5 2257.5 685.5 2268.09 685.5 2277.5 695.038 2277.5 705.769 2277.5 778.5 2277.5 778.5 2277.5 778.5" stroke="#595959" stroke-width="6.875" stroke-linecap="round" stroke-linejoin="round" stroke-miterlimit="10" fill="none" fill-rule="evenodd"/><path d="M2210.5 719.667C2214.12 710.333 2222.56 704.5 2229.79 708 2240.65 711.5 2240.65 711.5 2240.65 711.5 2247.88 713.833 2251.5 723.167 2247.88 732.5" stroke="#595959" stroke-width="6.875" stroke-linecap="round" stroke-linejoin="round" stroke-miterlimit="10" fill="none" fill-rule="evenodd"/><path d="M2252.5 734.5 2206.5 718.5" stroke="#595959" stroke-width="6.875" stroke-linecap="round" stroke-linejoin="round" stroke-miterlimit="10" fill="none" fill-rule="evenodd"/></g></svg>