<svg width="169" height="164" xmlns="http://www.w3.org/2000/svg" xmlns:xlink="http://www.w3.org/1999/xlink" xml:space="preserve" overflow="hidden"><g transform="translate(-3323 -1090)"><path d="M3413.2 1218.31C3358.69 1163.8 3358.69 1163.8 3358.69 1163.8 3349.2 1174.46 3349.2 1174.46 3349.2 1174.46 3358.69 1183.94 3358.69 1183.94 3358.69 1183.94 3363.43 1188.69 3365.8 1193.43 3358.69 1204.09 3351.57 1213.57 3340.91 1211.2 3332.61 1218.31 3325.5 1225.43 3325.5 1237.28 3332.61 1244.39 3339.72 1251.5 3351.57 1251.5 3358.69 1244.39 3361.06 1242.02 3362.24 1239.65 3363.43 1237.28 3366.98 1224.24 3364.61 1225.43 3374.09 1219.5 3383.57 1213.57 3388.31 1214.76 3393.06 1219.5 3402.54 1228.98 3402.54 1228.98 3402.54 1228.98 3413.2 1218.31 3413.2 1218.31 3413.2 1218.31ZM3366.98 1155.5C3421.5 1211.2 3421.5 1211.2 3421.5 1211.2" stroke="#111111" stroke-width="6.875" stroke-linecap="round" stroke-linejoin="round" stroke-miterlimit="10" fill="none" fill-rule="evenodd"/><path d="M3371.5 1144.69C3432.06 1205.5 3432.06 1205.5 3432.06 1205.5M3432.06 1199.54C3478.38 1159 3478.38 1159 3478.38 1159 3485.5 1153.04 3464.12 1131.58 3459.38 1126.81 3442.75 1105.35 3419 1081.5 3414.25 1101.77 3377.44 1144.69 3377.44 1144.69 3377.44 1144.69M3414.25 1101.77C3416.62 1105.35 3423.75 1112.5 3420.19 1114.88 3409.5 1122.04 3405.94 1128 3409.5 1132.77 3413.06 1136.35 3420.19 1139.92 3423.75 1133.96 3429.69 1125.62 3451.06 1118.46 3442.75 1133.96 3440.38 1139.92 3447.5 1144.69 3453.44 1139.92 3458.19 1136.35 3466.5 1151.85 3471.25 1162.58" stroke="#111111" stroke-width="6.875" stroke-linecap="round" stroke-linejoin="round" stroke-miterlimit="10" fill="none" fill-rule="evenodd"/><path d="M3476.5 1179.5C3470.5 1197.31 3464.5 1203.25 3464.5 1208 3464.5 1213.94 3469.3 1217.5 3476.5 1217.5 3482.5 1217.5 3488.5 1213.94 3488.5 1208 3488.5 1203.25 3476.5 1196.12 3476.5 1179.5Z" stroke="#111111" stroke-width="6.875" stroke-linecap="round" stroke-linejoin="round" stroke-miterlimit="10" fill="none" fill-rule="evenodd"/></g></svg>