<svg  width="156" height="172" xmlns="http://www.w3.org/2000/svg" xmlns:xlink="http://www.w3.org/1999/xlink"
     xml:space="preserve" overflow="hidden"><g transform="translate(-2564 -1908)"><path d="M2672.5 1964.5C2672.5 1989.37 2658.19 2009.5 2641.5 2009.5 2624.81 2009.5 2610.5 1989.37 2610.5 1964.5" stroke="#111111" stroke-width="6.875" stroke-linecap="round" stroke-linejoin="round" stroke-miterlimit="10" fill="none" fill-rule="evenodd"/><path
        d="M2684.5 1955.5C2684.5 1955.5 2684.5 1955.5 2684.5 1955.5 2684.5 1955.5 2684.5 1955.5 2683.31 1955.5 2682.11 1959.1 2665.39 1961.5 2643.89 1961.5 2643.89 1961.5 2643.89 1961.5 2643.89 1961.5 2641.5 1961.5 2640.31 1961.5 2639.11 1961.5 2639.11 1961.5 2639.11 1961.5 2639.11 1961.5 2617.61 1961.5 2600.89 1959.1 2598.5 1955.5 2598.5 1955.5 2598.5 1955.5 2598.5 1955.5 2598.5 1955.5 2598.5 1955.5 2598.5 1955.5 2598.5 1950.7 2602.08 1948.3 2606.86 1948.3 2606.86 1943.5 2606.86 1943.5 2606.86 1943.5 2606.86 1901.5 2674.94 1901.5 2674.94 1943.5 2674.94 1948.3 2674.94 1948.3 2674.94 1948.3 2680.92 1948.3 2684.5 1950.7 2684.5 1955.5Z"
        stroke="#111111" stroke-width="6.875" stroke-linecap="round" stroke-linejoin="round" stroke-miterlimit="10"
        fill="none" fill-rule="evenodd"/><path
        d="M2581.42 2025.27C2591.08 2020.5 2591.08 2020.5 2591.08 2020.5 2593.5 2076.5 2593.5 2076.5 2593.5 2076.5 2564.5 2076.5 2564.5 2076.5 2564.5 2076.5 2570.54 2035.99 2570.54 2035.99 2570.54 2035.99 2570.54 2032.42 2571.75 2030.03 2574.17 2027.65 2576.58 2026.46 2579 2026.46 2581.42 2025.27Z"
        stroke="#111111" stroke-width="6.875" stroke-linecap="round" stroke-linejoin="round" stroke-miterlimit="10"
        fill="none" fill-rule="evenodd"/><path
        d="M2689.92 2020.5C2699.58 2025.27 2699.58 2025.27 2699.58 2025.27 2705.63 2027.65 2710.46 2030.03 2711.67 2035.99 2716.5 2076.5 2716.5 2076.5 2716.5 2076.5 2687.5 2076.5 2687.5 2076.5 2687.5 2076.5 2689.92 2020.5 2689.92 2020.5 2689.92 2020.5Z"
        stroke="#111111" stroke-width="6.875" stroke-linecap="round" stroke-linejoin="round" stroke-miterlimit="10"
        fill="none" fill-rule="evenodd"/><path
        d="M2594.5 2019.1 2610 2010.5 2612.3 2053.5 2668.56 2053.5 2670.85 2010.5 2687.5 2019.1" stroke="#111111"
        stroke-width="6.875" stroke-linecap="round" stroke-linejoin="round" stroke-miterlimit="10" fill="none"
        fill-rule="evenodd"/><path d="M0 0 91.9998 0.000360892" stroke="#111111" stroke-width="6.875"
                                   stroke-linecap="round" stroke-linejoin="round" stroke-miterlimit="10" fill="none"
                                   fill-rule="evenodd" transform="matrix(-1 0 0 1 2686.5 2076.5)"/><path
        d="M2634.5 1913.5 2634.5 1936.5" stroke="#111111" stroke-width="6.875" stroke-linecap="round"
        stroke-linejoin="round" stroke-miterlimit="10" fill="none" fill-rule="evenodd"/><path
        d="M2647.5 1913.5 2647.5 1936.5" stroke="#111111" stroke-width="6.875" stroke-linecap="round"
        stroke-linejoin="round" stroke-miterlimit="10" fill="none" fill-rule="evenodd"/></g></svg>