<svg width="163" height="171" xmlns="http://www.w3.org/2000/svg" xmlns:xlink="http://www.w3.org/1999/xlink" xml:space="preserve" overflow="hidden"><g transform="translate(-1741 -336)"><path d="M1744.5 503.5 1900.5 503.5" stroke="#595959" stroke-width="6.875" stroke-linecap="round" stroke-linejoin="round" stroke-miterlimit="10" fill="none" fill-rule="evenodd"/><path d="M1757.5 503.5 1757.5 339.5 1853.5 339.5 1853.5 503.5" stroke="#595959" stroke-width="6.875" stroke-linecap="round" stroke-linejoin="round" stroke-miterlimit="10" fill="none" fill-rule="evenodd"/><path d="M1855.5 366.5 1887.5 366.5 1887.5 498.5" stroke="#595959" stroke-width="6.875" stroke-linecap="round" stroke-linejoin="round" stroke-miterlimit="10" fill="none" fill-rule="evenodd"/><path d="M1797.5 502.5 1797.5 471.5 1814.5 471.5 1814.5 502.5" stroke="#595959" stroke-width="6.875" stroke-linecap="round" stroke-linejoin="round" stroke-miterlimit="10" fill="none" fill-rule="evenodd"/><path d="M1779.5 366.537 1779.5 358.5M1805.7 366.537 1805.7 358.5M1831.91 366.537 1831.91 358.5M1779.5 396.389 1779.5 387.204M1805.7 396.389 1805.7 387.204M1831.91 396.389 1831.91 387.204M1779.5 425.093 1779.5 416.482M1805.7 425.093 1805.7 416.482M1831.91 425.093 1831.91 416.482M1779.5 453.796 1779.5 445.185M1805.7 453.796 1805.7 445.185M1831.91 453.796 1831.91 445.185M1779.5 482.5 1779.5 473.889M1831.91 482.5 1831.91 473.889M1869.5 396.389 1869.5 387.204M1869.5 425.093 1869.5 416.482M1869.5 453.796 1869.5 445.185M1869.5 482.5 1869.5 473.889" stroke="#595959" stroke-width="6.875" stroke-linecap="round" stroke-linejoin="round" stroke-miterlimit="10" fill="none" fill-rule="evenodd"/></g></svg>