<svg width="113" height="162" xmlns="http://www.w3.org/2000/svg" xmlns:xlink="http://www.w3.org/1999/xlink" xml:space="preserve" overflow="hidden"><g transform="translate(-3307 -361)"><path d="M3339.59 473.5C3338.39 441.159 3313.28 457.928 3310.89 414.808 3308.5 387.258 3333.61 364.5 3363.5 364.5 3392.2 364.5 3418.5 387.258 3416.11 414.808 3413.72 451.939 3394.59 443.555 3388.61 462.72" stroke="#595959" stroke-width="6.875" stroke-linecap="round" stroke-linejoin="round" stroke-miterlimit="10" fill="none" fill-rule="evenodd"/><path d="M3340.5 510.5 3389.5 498.076M3340.5 492.994 3389.5 480.006M3340.5 475.488 3389.5 462.5" stroke="#595959" stroke-width="6.875" stroke-linecap="round" stroke-linejoin="round" stroke-miterlimit="10" fill="none" fill-rule="evenodd"/><path d="M3380.5 505.5C3380.5 513.667 3373.35 519.5 3363.81 519.5 3357.85 519.5 3353.08 517.167 3349.5 513.667" stroke="#595959" stroke-width="6.875" stroke-linecap="round" stroke-linejoin="round" stroke-miterlimit="10" fill="none" fill-rule="evenodd"/><path d="M3344.5 423.216 3361.35 446.5 3387.5 400.5" stroke="#595959" stroke-width="6.875" stroke-linecap="round" stroke-linejoin="round" stroke-miterlimit="10" fill="none" fill-rule="evenodd"/></g></svg>