<svg width="172" height="175" xmlns="http://www.w3.org/2000/svg" xmlns:xlink="http://www.w3.org/1999/xlink" xml:space="preserve" overflow="hidden"><g transform="translate(-3347 -1543)"><path d="M3459.77 1624.13C3449.1 1618.2 3449.1 1618.2 3449.1 1618.2 3453.84 1606.34 3453.84 1606.34 3453.84 1606.34 3452.66 1603.97 3450.29 1602.79 3449.1 1600.41 3436.06 1602.79 3436.06 1602.79 3436.06 1602.79 3432.5 1589.74 3432.5 1589.74 3432.5 1589.74 3444.36 1585 3444.36 1585 3444.36 1585 3444.36 1582.63 3444.36 1580.26 3445.54 1577.89 3434.87 1570.77 3434.87 1570.77 3434.87 1570.77 3440.8 1558.91 3440.8 1558.91 3440.8 1558.91 3452.66 1564.84 3452.66 1564.84 3452.66 1564.84 3453.84 1562.47 3456.21 1561.29 3458.59 1560.1 3456.21 1547.06 3456.21 1547.06 3456.21 1547.06 3468.07 1543.5 3468.07 1543.5 3468.07 1543.5 3472.81 1555.36 3472.81 1555.36 3472.81 1555.36 3475.19 1555.36 3477.56 1555.36 3479.93 1556.54 3488.23 1544.69 3488.23 1544.69 3488.23 1544.69 3498.9 1551.8 3498.9 1551.8 3498.9 1551.8 3494.16 1563.66 3494.16 1563.66 3494.16 1563.66 3495.34 1564.84 3497.71 1567.21 3498.9 1569.59 3511.94 1566.03 3511.94 1566.03 3511.94 1566.03 3515.5 1579.07 3515.5 1579.07 3515.5 1579.07 3503.64 1583.81 3503.64 1583.81 3503.64 1583.81 3503.64 1586.19 3502.46 1588.56 3502.46 1590.93 3513.13 1598.04 3513.13 1598.04 3513.13 1598.04 3507.2 1609.9 3507.2 1609.9 3507.2 1609.9 3495.34 1605.16 3495.34 1605.16 3495.34 1605.16 3492.97 1606.34 3491.79 1607.53 3489.41 1609.9 3491.79 1621.76 3491.79 1621.76 3491.79 1621.76 3479.93 1626.5 3479.93 1626.5 3479.93 1626.5 3475.19 1613.46 3475.19 1613.46 3475.19 1613.46 3471.63 1613.46 3469.26 1613.46 3466.89 1613.46 3459.77 1624.13 3459.77 1624.13 3459.77 1624.13Z" stroke="#595959" stroke-width="6.875" stroke-linecap="round" stroke-linejoin="round" stroke-miterlimit="10" fill="none" fill-rule="evenodd"/><path d="M3470.95 1574.86C3478.05 1572.5 3482.77 1574.86 3485.14 1581.95 3487.5 1589.05 3483.95 1593.77 3478.05 1596.14 3470.95 1598.5 3465.05 1594.95 3463.86 1587.86 3461.5 1581.95 3465.05 1576.05 3470.95 1574.86Z" stroke="#595959" stroke-width="6.875" stroke-linecap="round" stroke-linejoin="round" stroke-miterlimit="10" fill="none" fill-rule="evenodd"/><path d="M3386.1 1712.13C3370.68 1703.82 3370.68 1703.82 3370.68 1703.82 3377.8 1688.39 3377.8 1688.39 3377.8 1688.39 3375.42 1686.02 3373.05 1683.64 3371.86 1680.08 3355.25 1683.64 3355.25 1683.64 3355.25 1683.64 3350.5 1668.21 3350.5 1668.21 3350.5 1668.21 3365.93 1661.09 3365.93 1661.09 3365.93 1661.09 3365.93 1657.53 3365.93 1655.16 3367.12 1651.6 3352.87 1642.1 3352.87 1642.1 3352.87 1642.1 3361.18 1626.68 3361.18 1626.68 3361.18 1626.68 3376.61 1633.8 3376.61 1633.8 3376.61 1633.8 3378.98 1631.42 3381.36 1629.05 3383.73 1627.86 3380.17 1611.25 3380.17 1611.25 3380.17 1611.25 3396.79 1606.5 3396.79 1606.5 3396.79 1606.5 3402.72 1621.93 3402.72 1621.93 3402.72 1621.93 3406.28 1621.93 3409.84 1621.93 3412.21 1623.12 3421.71 1608.87 3421.71 1608.87 3421.71 1608.87 3437.14 1617.18 3437.14 1617.18 3437.14 1617.18 3430.02 1632.61 3430.02 1632.61 3430.02 1632.61 3432.39 1634.98 3434.76 1637.36 3435.95 1639.73 3453.75 1636.17 3453.75 1636.17 3453.75 1636.17 3458.5 1652.79 3458.5 1652.79 3458.5 1652.79 3441.88 1658.72 3441.88 1658.72 3441.88 1658.72 3441.88 1662.28 3441.88 1665.84 3440.7 1668.21 3456.13 1677.71 3456.13 1677.71 3456.13 1677.71 3447.82 1693.14 3447.82 1693.14 3447.82 1693.14 3431.2 1686.02 3431.2 1686.02 3431.2 1686.02 3430.02 1688.39 3427.64 1690.76 3424.08 1691.95 3427.64 1709.75 3427.64 1709.75 3427.64 1709.75 3411.03 1714.5 3411.03 1714.5 3411.03 1714.5 3405.09 1697.88 3405.09 1697.88 3405.09 1697.88 3401.53 1697.88 3399.16 1697.88 3395.6 1697.88 3386.1 1712.13 3386.1 1712.13 3386.1 1712.13Z" stroke="#595959" stroke-width="6.875" stroke-linecap="round" stroke-linejoin="round" stroke-miterlimit="10" fill="none" fill-rule="evenodd"/><path d="M3398.08 1641.05C3408.74 1637.5 3420.58 1643.42 3422.95 1654.08 3426.5 1664.74 3420.58 1676.58 3409.92 1678.95 3399.26 1682.5 3388.61 1676.58 3385.05 1665.92 3381.5 1655.26 3387.42 1644.61 3398.08 1641.05Z" stroke="#595959" stroke-width="6.875" stroke-linecap="round" stroke-linejoin="round" stroke-miterlimit="10" fill="none" fill-rule="evenodd"/></g></svg>