<svg width="164" height="164" xmlns="http://www.w3.org/2000/svg" xmlns:xlink="http://www.w3.org/1999/xlink" xml:space="preserve" overflow="hidden"><g transform="translate(-2945 -1075)"><path d="M2960.39 1184.36C3092.42 1184.36 3092.42 1184.36 3092.42 1184.36 3099.55 1184.36 3105.5 1189.11 3105.5 1196.25 3105.5 1222.42 3105.5 1222.42 3105.5 1222.42 3105.5 1229.55 3099.55 1235.5 3092.42 1235.5 2960.39 1235.5 2960.39 1235.5 2960.39 1235.5 2954.45 1235.5 2948.5 1229.55 2948.5 1222.42 2948.5 1196.25 2948.5 1196.25 2948.5 1196.25 2948.5 1189.11 2954.45 1184.36 2960.39 1184.36ZM2948.5 1216.47C2948.5 1097.53 2948.5 1097.53 2948.5 1097.53 2948.5 1086.83 2956.83 1078.5 2967.53 1078.5 2980.61 1078.5 2980.61 1078.5 2980.61 1078.5 2985.37 1078.5 2991.32 1080.88 2993.7 1084.45M2956.83 1183.17C2985.37 1095.15 2985.37 1095.15 2985.37 1095.15 2988.94 1085.64 2999.64 1079.69 3009.16 1083.26 3021.05 1086.83 3021.05 1086.83 3021.05 1086.83 3027 1089.2 3030.57 1092.77 3032.95 1097.53M2963.96 1183.17C3021.05 1104.67 3021.05 1104.67 3021.05 1104.67 3027 1096.34 3038.89 1093.96 3047.22 1099.91 3057.92 1108.23 3057.92 1108.23 3057.92 1108.23 3062.68 1111.8 3065.06 1114.18 3065.06 1120.13M2971.1 1183.17C3051.98 1124.89 3051.98 1124.89 3051.98 1124.89 3060.3 1118.94 3072.2 1120.13 3079.33 1128.45 3086.47 1139.16 3086.47 1139.16 3086.47 1139.16 3090.04 1143.92 3091.23 1148.67 3090.04 1153.43M2979.42 1184.36C3075.76 1153.43 3075.76 1153.43 3075.76 1153.43 3085.28 1149.86 3095.98 1155.81 3099.55 1165.33 3104.31 1177.22 3104.31 1177.22 3104.31 1177.22 3105.5 1181.98 3104.31 1185.55 3103.12 1190.3" stroke="#595959" stroke-width="6.875" stroke-linecap="round" stroke-linejoin="round" stroke-miterlimit="10" fill="none" fill-rule="evenodd"/><path d="M2972.77 1201.83C2960.5 1205.33 2966.64 1220.5 2976.45 1218.17 2987.5 1215.83 2983.82 1199.5 2972.77 1201.83Z" stroke="#595959" stroke-width="6.875" stroke-linecap="round" stroke-linejoin="round" stroke-miterlimit="10" fill="none" fill-rule="evenodd"/></g></svg>