<svg width="111" height="172" xmlns="http://www.w3.org/2000/svg" xmlns:xlink="http://www.w3.org/1999/xlink" xml:space="preserve" overflow="hidden"><g transform="translate(-2533 -363)"><path d="M2539.5 370.075C2539.5 368.883 2540.69 366.5 2543.06 366.5 2638.12 366.5 2638.12 366.5 2638.12 366.5 2639.31 366.5 2640.5 368.883 2640.5 370.075 2640.5 505.925 2640.5 505.925 2640.5 505.925 2640.5 507.117 2639.31 509.5 2638.12 509.5 2603.66 509.5 2603.66 509.5 2603.66 509.5" stroke="#595959" stroke-width="6.875" stroke-linecap="round" stroke-linejoin="round" stroke-miterlimit="10" fill="none" fill-rule="evenodd"/><path d="M2538.9 368.688C2600.1 388.891 2600.1 388.891 2600.1 388.891 2601.3 388.891 2602.5 391.268 2602.5 392.456 2602.5 529.123 2602.5 529.123 2602.5 529.123 2602.5 530.312 2601.3 531.5 2600.1 530.312 2538.9 510.109 2538.9 510.109 2538.9 510.109 2537.7 510.109 2536.5 508.92 2536.5 506.543 2536.5 369.877 2536.5 369.877 2536.5 369.877 2536.5 368.688 2537.7 367.5 2538.9 368.688Z" stroke="#595959" stroke-width="6.875" stroke-linecap="round" stroke-linejoin="round" stroke-miterlimit="10" fill="none" fill-rule="evenodd"/><path d="M2579.5 457.5C2579.5 455.291 2581.29 453.5 2583.5 453.5 2585.71 453.5 2587.5 455.291 2587.5 457.5 2587.5 459.709 2585.71 461.5 2583.5 461.5 2581.29 461.5 2579.5 459.709 2579.5 457.5Z" stroke="#595959" stroke-width="6.875" stroke-linecap="round" stroke-linejoin="round" stroke-miterlimit="10" fill="none" fill-rule="evenodd"/></g></svg>