<svg width="177" height="154" xmlns="http://www.w3.org/2000/svg" xmlns:xlink="http://www.w3.org/1999/xlink" xml:space="preserve" overflow="hidden"><g transform="translate(-3734 -713)"><path d="M3815.96 772.671C3812.4 778.646 3817.15 788.207 3818.34 791.793 3800.51 791.793 3800.51 791.793 3800.51 791.793M3739.88 836.012C3815.96 836.012 3815.96 836.012 3815.96 836.012 3818.34 836.012 3819.53 837.207 3819.53 839.598 3819.53 859.915 3819.53 859.915 3819.53 859.915 3819.53 862.305 3818.34 863.5 3815.96 863.5 3739.88 863.5 3739.88 863.5 3739.88 863.5 3738.69 863.5 3737.5 862.305 3737.5 859.915 3737.5 839.598 3737.5 839.598 3737.5 839.598 3737.5 837.207 3738.69 836.012 3739.88 836.012ZM3859.95 723.671C3868.27 723.671 3868.27 723.671 3868.27 723.671 3868.27 723.671 3878.97 733.232 3878.97 735.622 3878.97 742.793 3878.97 742.793 3878.97 748.768 3878.97 752.354 3868.27 761.915 3868.27 761.915 3859.95 761.915 3859.95 761.915 3859.95 761.915M3748.2 834.817C3744.63 834.817 3742.26 831.232 3743.44 826.451 3756.52 785.817 3756.52 785.817 3756.52 785.817 3758.9 779.841 3755.33 772.671 3749.39 769.085 3744.63 765.5 3737.5 764.305 3737.5 758.329 3737.5 727.256 3737.5 727.256 3737.5 727.256 3737.5 721.28 3743.44 716.5 3749.39 716.5 3844.49 716.5 3844.49 716.5 3844.49 716.5 3850.44 716.5 3856.38 721.28 3856.38 727.256 3856.38 758.329 3856.38 758.329 3856.38 758.329 3856.38 764.305 3850.44 769.085 3844.49 769.085 3814.77 769.085 3814.77 769.085 3814.77 769.085 3808.83 769.085 3802.88 775.061 3801.7 781.036 3800.51 785.817 3789.81 808.524 3789.81 813.305 3789.81 820.476 3794.56 830.037 3800.51 833.622 3800.51 833.622 3799.32 833.622 3799.32 833.622M3878.97 742.793C3907.5 742.793 3907.5 742.793 3907.5 742.793M3758.9 748.768C3769.6 733.232 3769.6 733.232 3769.6 733.232M3777.92 748.768C3788.62 733.232 3788.62 733.232 3788.62 733.232" stroke="#595959" stroke-width="6.875" stroke-linecap="round" stroke-linejoin="round" stroke-miterlimit="10" fill="none" fill-rule="evenodd"/></g></svg>