<svg width="167" height="159" xmlns="http://www.w3.org/2000/svg" xmlns:xlink="http://www.w3.org/1999/xlink" xml:space="preserve" overflow="hidden"><g transform="translate(-1789 -1518)"><path d="M1841.34 1537.5C1880.66 1537.5 1880.66 1537.5 1880.66 1537.5 1906.87 1537.5 1929.5 1558.97 1929.5 1585.22 1929.5 1668.73 1929.5 1668.73 1929.5 1668.73 1929.5 1671.11 1927.12 1673.5 1924.73 1673.5 1841.34 1673.5 1841.34 1673.5 1841.34 1673.5 1813.94 1673.5 1792.5 1652.03 1792.5 1625.78 1792.5 1585.22 1792.5 1585.22 1792.5 1585.22 1792.5 1558.97 1813.94 1537.5 1841.34 1537.5Z" stroke="#595959" stroke-width="6.875" stroke-linecap="round" stroke-linejoin="round" stroke-miterlimit="10" fill="none" fill-rule="evenodd"/><path d="M1816.5 1605.5C1816.5 1581.2 1836.42 1561.5 1861 1561.5 1885.58 1561.5 1905.5 1581.2 1905.5 1605.5 1905.5 1629.8 1885.58 1649.5 1861 1649.5 1836.42 1649.5 1816.5 1629.8 1816.5 1605.5Z" stroke="#595959" stroke-width="6.875" stroke-linecap="round" stroke-linejoin="round" stroke-miterlimit="10" fill="none" fill-rule="evenodd"/><path d="M1929.5 1662.5 1952.5 1662.5 1952.5 1643.5" stroke="#595959" stroke-width="6.875" stroke-linecap="round" stroke-linejoin="round" stroke-miterlimit="10" fill="none" fill-rule="evenodd"/><path d="M1886.5 1538.07C1902.1 1523.87 1902.1 1523.87 1902.1 1523.87 1904.5 1521.5 1909.3 1521.5 1911.7 1523.87 1944.1 1555.83 1944.1 1555.83 1944.1 1555.83 1946.5 1558.19 1946.5 1561.74 1944.1 1564.11 1928.5 1579.5 1928.5 1579.5 1928.5 1579.5" stroke="#595959" stroke-width="6.875" stroke-linecap="round" stroke-linejoin="round" stroke-miterlimit="10" fill="none" fill-rule="evenodd"/><path d="M1849.3 1600.69C1854.1 1599.5 1861.3 1599.5 1867.3 1601.87 1880.5 1608.98 1878.1 1623.2 1864.9 1629.13 1857.7 1631.5 1850.5 1631.5 1844.5 1626.76" stroke="#595959" stroke-width="6.875" stroke-linecap="round" stroke-linejoin="round" stroke-miterlimit="10" fill="none" fill-rule="evenodd"/><path d="M1848.5 1599.5 1848.5 1585.5 1876.5 1585.5" stroke="#595959" stroke-width="6.875" stroke-linecap="round" stroke-linejoin="round" stroke-miterlimit="10" fill="none" fill-rule="evenodd"/></g></svg>