<svg width="166" height="162" xmlns="http://www.w3.org/2000/svg" xmlns:xlink="http://www.w3.org/1999/xlink"
     xml:space="preserve" overflow="hidden"><g transform="translate(-1389 -336)"><path d="M1539.59 389.195C1539.59 494.5 1539.59 494.5 1539.59 494.5M1402.6 494.5C1402.6 389.195 1402.6 389.195 1402.6 389.195M1420.47 339.5C1521.72 339.5 1521.72 339.5 1521.72 339.5 1551.5 388.012 1551.5 388.012 1551.5 388.012 1496.71 388.012 1496.71 388.012 1496.71 388.012 1470.5 364.347 1470.5 364.347 1470.5 364.347 1444.29 388.012 1444.29 388.012 1444.29 388.012 1389.5 388.012 1389.5 388.012 1389.5 388.012 1420.47 339.5 1420.47 339.5 1420.47 339.5ZM1452.63 494.5C1452.63 455.454 1452.63 455.454 1452.63 455.454 1452.63 447.172 1460.97 438.889 1470.5 438.889 1470.5 438.889 1470.5 438.889 1470.5 438.889 1480.03 438.889 1488.37 447.172 1488.37 455.454 1488.37 494.5 1488.37 494.5 1488.37 494.5M1420.47 409.309C1434.76 409.309 1434.76 409.309 1434.76 409.309 1434.76 429.424 1434.76 429.424 1434.76 429.424 1420.47 429.424 1420.47 429.424 1420.47 429.424 1420.47 409.309 1420.47 409.309 1420.47 409.309ZM1420.47 449.538C1434.76 449.538 1434.76 449.538 1434.76 449.538 1434.76 475.569 1434.76 475.569 1434.76 475.569 1420.47 475.569 1420.47 475.569 1420.47 475.569 1420.47 449.538 1420.47 449.538 1420.47 449.538ZM1507.43 449.538C1521.72 449.538 1521.72 449.538 1521.72 449.538 1521.72 475.569 1521.72 475.569 1521.72 475.569 1507.43 475.569 1507.43 475.569 1507.43 475.569 1507.43 449.538 1507.43 449.538 1507.43 449.538ZM1507.43 409.309C1521.72 409.309 1521.72 409.309 1521.72 409.309 1521.72 429.424 1521.72 429.424 1521.72 429.424 1507.43 429.424 1507.43 429.424 1507.43 429.424 1507.43 409.309 1507.43 409.309 1507.43 409.309Z" stroke="#111111" stroke-width="6.875" stroke-linecap="round" stroke-linejoin="round" stroke-miterlimit="10" fill="none" fill-rule="evenodd"/><path
        d="M1460.5 403C1460.5 396.649 1465.43 391.5 1471.5 391.5 1477.58 391.5 1482.5 396.649 1482.5 403 1482.5 409.351 1477.58 414.5 1471.5 414.5 1465.43 414.5 1460.5 409.351 1460.5 403Z"
        stroke="#111111" stroke-width="6.875" stroke-miterlimit="8" fill="none" fill-rule="evenodd"/><path
        d="M1393.5 494.5 1549.5 494.501" stroke="#111111" stroke-width="6.875" stroke-linecap="round"
        stroke-linejoin="round" stroke-miterlimit="10" fill="none" fill-rule="evenodd"/></g></svg>