<svg width="130" height="176" xmlns="http://www.w3.org/2000/svg" xmlns:xlink="http://www.w3.org/1999/xlink" xml:space="preserve" overflow="hidden"><g transform="translate(-1802 -1910)"><path d="M1830.79 1928.5 1866.43 1928.5 1902.64 1928.5 1928.5 1952.65 1897.46 2020.5 1866.43 2020.5 1835.39 2020.5 1805.5 1952.65 1830.79 1928.5 1830.79 1928.5Z" stroke="#595959" stroke-width="6.875" stroke-linecap="round" stroke-linejoin="round" stroke-miterlimit="10" fill="none" fill-rule="evenodd"/><path d="M1890.5 2061.04C1890.5 2067 1888.09 2071.77 1883.27 2076.54 1879.65 2080.12 1873.63 2082.5 1866.4 2082.5 1860.37 2082.5 1854.35 2080.12 1849.53 2076.54 1845.91 2071.77 1843.5 2067 1843.5 2061.04 1843.5 2055.08 1845.91 2049.12 1849.53 2045.54 1862.78 2036 1866.4 2037.19 1866.4 2030.04 1866.4 2020.5 1866.4 2020.5 1866.4 2020.5" stroke="#595959" stroke-width="6.875" stroke-linecap="round" stroke-linejoin="round" stroke-miterlimit="10" fill="none" fill-rule="evenodd"/><path d="M0 0 0.000360892 14.9998" stroke="#595959" stroke-width="6.875" stroke-linecap="round" stroke-linejoin="round" stroke-miterlimit="10" fill="none" fill-rule="evenodd" transform="matrix(1 0 0 -1 1847.5 1928.5)"/><path d="M0 0 0.000360892 14.9998" stroke="#595959" stroke-width="6.875" stroke-linecap="round" stroke-linejoin="round" stroke-miterlimit="10" fill="none" fill-rule="evenodd" transform="matrix(1 0 0 -1 1885.5 1928.5)"/><path d="M0 0 43.0003 40.9999" stroke="#595959" stroke-width="6.875" stroke-linecap="round" stroke-linejoin="round" stroke-miterlimit="10" fill="none" fill-rule="evenodd" transform="matrix(-1 0 0 1 1858.5 1928.5)"/><path d="M0 0 61.9999 58.0001" stroke="#595959" stroke-width="6.875" stroke-linecap="round" stroke-linejoin="round" stroke-miterlimit="10" fill="none" fill-rule="evenodd" transform="matrix(-1 0 0 1 1885.5 1928.5)"/><path d="M0 0 74.9999 68.9997" stroke="#595959" stroke-width="6.875" stroke-linecap="round" stroke-linejoin="round" stroke-miterlimit="10" fill="none" fill-rule="evenodd" transform="matrix(-1 0 0 1 1906.5 1934.5)"/><path d="M0 0 80.0001 74.9999" stroke="#595959" stroke-width="6.875" stroke-linecap="round" stroke-linejoin="round" stroke-miterlimit="10" fill="none" fill-rule="evenodd" transform="matrix(-1 0 0 1 1920.5 1945.5)"/><path d="M0 0 51.9999 48.0001" stroke="#595959" stroke-width="6.875" stroke-linecap="round" stroke-linejoin="round" stroke-miterlimit="10" fill="none" fill-rule="evenodd" transform="matrix(-1 0 0 1 1920.5 1971.5)"/></g></svg>