<svg width="156" height="171" xmlns="http://www.w3.org/2000/svg" xmlns:xlink="http://www.w3.org/1999/xlink" xml:space="preserve" overflow="hidden"><g transform="translate(-2110 -363)"><path d="M2130.17 383.171C2111.08 403.455 2107.5 433.284 2124.2 448.795 2139.72 465.5 2169.55 461.92 2188.64 441.636 2208.92 422.545 2212.5 392.716 2195.8 377.205 2180.28 360.5 2150.45 364.08 2130.17 383.171Z" stroke="#595959" stroke-width="6.875" stroke-linecap="round" stroke-linejoin="round" stroke-miterlimit="10" fill="none" fill-rule="evenodd"/><path d="M2143.48 397.66C2132.86 408.28 2130.5 424.8 2138.76 434.24 2147.02 442.5 2163.54 440.14 2175.34 428.34 2187.14 417.72 2189.5 401.2 2181.24 391.76 2171.8 383.5 2155.28 385.86 2143.48 397.66Z" stroke="#595959" stroke-width="6.875" stroke-linecap="round" stroke-linejoin="round" stroke-miterlimit="10" fill="none" fill-rule="evenodd"/><path d="M2179.5 450.655C2241.16 512.909 2241.16 512.909 2241.16 512.909 2244.71 516.5 2249.46 515.303 2253.01 512.909 2258.94 505.725 2258.94 505.725 2258.94 505.725 2262.5 503.331 2262.5 497.345 2260.13 494.951 2198.47 431.5 2198.47 431.5 2198.47 431.5" stroke="#595959" stroke-width="6.875" stroke-linecap="round" stroke-linejoin="round" stroke-miterlimit="10" fill="none" fill-rule="evenodd"/><path d="M2239.5 512.737C2220.55 530.5 2220.55 530.5 2220.55 530.5 2211.08 521.026 2205.16 513.921 2194.5 504.447 2213.45 485.5 2213.45 485.5 2213.45 485.5M2207.53 516.289C2214.63 509.184 2214.63 509.184 2214.63 509.184" stroke="#595959" stroke-width="6.875" stroke-linecap="round" stroke-linejoin="round" stroke-miterlimit="10" fill="none" fill-rule="evenodd"/></g></svg>