<svg width="140" height="161" xmlns="http://www.w3.org/2000/svg" xmlns:xlink="http://www.w3.org/1999/xlink" xml:space="preserve" overflow="hidden"><g transform="translate(-2159 -1075)"><path d="M0 0 133 0.000360892" stroke="#595959" stroke-width="6.875" stroke-linecap="round" stroke-linejoin="round" stroke-miterlimit="10" fill="none" fill-rule="evenodd" transform="matrix(-1 0 0 1 2295.5 1137.5)"/><path d="M2294.5 1140.5C2276.77 1234.31 2276.77 1234.31 2276.77 1234.31 2182.23 1235.5 2182.23 1235.5 2182.23 1235.5 2164.5 1140.5 2164.5 1140.5 2164.5 1140.5 2178.68 1144.06 2198.77 1147.63 2198.77 1165.44 2198.77 1180.88 2194.05 1188 2194.05 1196.31 2194.05 1210.56 2221.23 1212.94 2221.23 1196.31 2221.23 1189.19 2215.32 1185.62 2214.14 1174.94 2211.77 1146.44 2238.95 1153.56 2233.05 1170.19 2227.14 1192.75 2259.05 1191.56 2249.59 1169 2247.23 1154.75 2276.77 1171.38 2292.14 1155.94" stroke="#595959" stroke-width="6.875" stroke-linecap="round" stroke-linejoin="round" stroke-miterlimit="10" fill="none" fill-rule="evenodd"/><path d="M2256.5 1087.5C2282.62 1092.26 2294.5 1112.5 2294.5 1137.5" stroke="#595959" stroke-width="6.875" stroke-linecap="round" stroke-linejoin="round" stroke-miterlimit="10" fill="none" fill-rule="evenodd"/><path d="M2207.05 1078.5C2251.95 1078.5 2251.95 1078.5 2251.95 1078.5 2253.14 1078.5 2255.5 1079.73 2255.5 1082.19 2255.5 1092.04 2255.5 1092.04 2255.5 1092.04 2255.5 1093.27 2253.14 1094.5 2251.95 1094.5 2207.05 1094.5 2207.05 1094.5 2207.05 1094.5 2204.68 1094.5 2203.5 1093.27 2203.5 1092.04 2203.5 1082.19 2203.5 1082.19 2203.5 1082.19 2203.5 1079.73 2204.68 1078.5 2207.05 1078.5Z" stroke="#595959" stroke-width="6.875" stroke-linecap="round" stroke-linejoin="round" stroke-miterlimit="10" fill="none" fill-rule="evenodd"/><path d="M2201.5 1087.5C2175.5 1092.26 2163.68 1112.5 2162.5 1137.5" stroke="#595959" stroke-width="6.875" stroke-linecap="round" stroke-linejoin="round" stroke-miterlimit="10" fill="none" fill-rule="evenodd"/></g></svg>