<svg width="164" height="166" xmlns="http://www.w3.org/2000/svg" xmlns:xlink="http://www.w3.org/1999/xlink" xml:space="preserve" overflow="hidden"><g transform="translate(-2556 -1065)"><path d="M2614.21 1178.59C2618.97 1183.36 2618.97 1183.36 2618.97 1183.36 2621.35 1184.55 2621.35 1188.13 2618.97 1189.32 2583.29 1225.11 2583.29 1225.11 2583.29 1225.11 2580.91 1227.5 2578.53 1227.5 2576.15 1225.11 2560.69 1209.61 2560.69 1209.61 2560.69 1209.61 2559.5 1208.41 2559.5 1204.83 2560.69 1203.64 2597.56 1166.66 2597.56 1166.66 2597.56 1166.66 2598.75 1165.46 2601.13 1165.46 2603.51 1166.66 2608.27 1171.43 2608.27 1171.43 2608.27 1171.43 2614.21 1178.59 2614.21 1178.59 2614.21 1178.59ZM2705.8 1159.5C2715.31 1169.04 2715.31 1169.04 2715.31 1169.04 2716.5 1170.24 2716.5 1173.82 2715.31 1175.01 2695.09 1194.1 2695.09 1194.1 2695.09 1194.1 2693.9 1195.29 2692.71 1196.48 2690.33 1195.29 2621.35 1165.46 2621.35 1165.46 2621.35 1165.46 2611.83 1175.01 2611.83 1175.01 2611.83 1175.01" stroke="#595959" stroke-width="6.875" stroke-linecap="round" stroke-linejoin="round" stroke-miterlimit="10" fill="none" fill-rule="evenodd"/><path d="M2710.32 1142.61C2639.28 1069.7 2639.28 1069.7 2639.28 1069.7 2636.91 1068.5 2634.55 1068.5 2633.36 1069.7 2609.68 1093.6 2609.68 1093.6 2609.68 1093.6 2608.5 1094.8 2608.5 1097.19 2609.68 1099.58 2681.9 1171.3 2681.9 1171.3 2681.9 1171.3 2683.09 1172.5 2685.45 1172.5 2686.64 1171.3 2710.32 1147.4 2710.32 1147.4 2710.32 1147.4 2711.5 1146.2 2711.5 1143.81 2710.32 1142.61Z" stroke="#595959" stroke-width="6.875" stroke-linecap="round" stroke-linejoin="round" stroke-miterlimit="10" fill="none" fill-rule="evenodd"/></g></svg>