<svg width="164" height="162" xmlns="http://www.w3.org/2000/svg" xmlns:xlink="http://www.w3.org/1999/xlink" xml:space="preserve" overflow="hidden"><g transform="translate(-2901 -691)"><path d="M2904.5 710C2912.83 710 2912.83 710 2912.83 710 2915.2 710 2916.39 711.192 2917.58 712.385 2917.58 752.923 2917.58 752.923 2917.58 752.923 2916.39 755.308 2915.2 756.5 2912.83 756.5 2904.5 756.5 2904.5 756.5 2904.5 756.5 2904.5 710 2904.5 710 2904.5 710ZM3046.04 694.5C3046.04 712.385 3046.04 719.538 3046.04 737.423M3046.04 737.423C3061.5 737.423 3061.5 737.423 3061.5 737.423M2998.46 737.423C3013.92 737.423 3013.92 737.423 3013.92 737.423M3013.92 737.423C3013.92 719.538 3013.92 712.385 3013.92 694.5M3049.61 751.731C3049.61 764.846 3049.61 770.808 3049.61 783.923 3049.61 786.308 3048.42 787.5 3046.04 787.5 3043.66 787.5 3043.66 787.5 3043.66 787.5 3043.66 787.5 3043.66 787.5 3043.66 787.5 3016.3 787.5 3016.3 787.5 3016.3 787.5 3016.3 787.5 3016.3 787.5 3016.3 787.5 3013.92 787.5 3013.92 787.5 3013.92 787.5 3011.55 787.5 3009.17 786.308 3009.17 783.923 3009.17 770.808 3009.17 764.846 3009.17 751.731 3007.98 751.731 3007.98 751.731 3007.98 751.731 3005.6 751.731 3004.41 749.346 3004.41 748.154 3004.41 741 3004.41 741 3004.41 741 3004.41 739.808 3005.6 737.423 3007.98 737.423 3051.98 737.423 3051.98 737.423 3051.98 737.423 3053.17 737.423 3055.55 739.808 3055.55 741 3055.55 748.154 3055.55 748.154 3055.55 748.154 3055.55 749.346 3053.17 751.731 3050.8 751.731 3049.61 751.731 3049.61 751.731 3049.61 751.731ZM2919.96 713.577C2928.29 713.577 2928.29 713.577 2928.29 713.577 2929.48 713.577 2930.67 714.769 2930.67 715.961 2930.67 750.538 2930.67 750.538 2930.67 750.538 2930.67 751.731 2929.48 751.731 2928.29 751.731 2919.96 751.731 2919.96 751.731 2919.96 751.731M2935.42 718.346C2940.18 718.346 2940.18 718.346 2940.18 718.346 2972.3 719.538 2986.57 733.846 2986.57 767.231 2986.57 772 2986.57 772 2986.57 772M2959.21 772C2959.21 767.231 2959.21 767.231 2959.21 767.231 2959.21 752.923 2952.08 746.961 2940.18 746.961 2935.42 745.769 2935.42 745.769 2935.42 745.769M3043.66 791.077C3042.47 812.538 3031.76 828.038 3018.68 835.192 3017.49 835.192 3016.3 836.385 3013.92 836.385 3013.92 837.577 3013.92 837.577 3013.92 837.577 3013.92 849.5 3013.92 849.5 3013.92 849.5M2986.57 849.5C2986.57 837.577 2986.57 837.577 2986.57 837.577 2986.57 836.385 2986.57 836.385 2986.57 836.385 2985.38 835.192 2984.19 835.192 2984.19 835.192 2969.92 828.038 2959.21 813.731 2959.21 791.077 2959.21 788.692 2959.21 788.692 2959.21 788.692 2958.02 788.692 2958.02 788.692 2958.02 788.692 2955.64 788.692 2954.45 787.5 2954.45 785.115 2954.45 780.346 2954.45 780.346 2954.45 780.346 2954.45 777.961 2955.64 775.577 2958.02 775.577 2959.21 775.577 2959.21 775.577 2959.21 775.577 2959.21 775.577 2959.21 775.577 2959.21 775.577 2986.57 775.577 2986.57 775.577 2986.57 775.577 2986.57 775.577 2986.57 775.577 2986.57 775.577 2987.76 775.577 2987.76 775.577 2987.76 775.577 2990.14 775.577 2992.51 777.961 2992.51 780.346 2992.51 785.115 2992.51 785.115 2992.51 785.115 2992.51 787.5 2990.14 788.692 2987.76 788.692 2986.57 788.692 2986.57 788.692 2986.57 788.692 2986.57 791.077 2986.57 791.077 2986.57 791.077 2986.57 801.808 2991.33 807.769 2996.08 810.154 2997.27 811.346 2999.65 811.346 3000.84 811.346 3003.22 811.346 3005.6 811.346 3006.79 810.154 3011.55 807.769 3015.11 800.615 3016.3 791.077" stroke="#595959" stroke-width="6.875" stroke-linecap="round" stroke-linejoin="round" stroke-miterlimit="10" fill="none" fill-rule="evenodd"/></g></svg>