<svg width="169" height="173" xmlns="http://www.w3.org/2000/svg" xmlns:xlink="http://www.w3.org/1999/xlink" xml:space="preserve" overflow="hidden"><g transform="translate(-3728 -1104)"><path d="M3776.76 1182.2C3857.76 1108.69 3857.76 1108.69 3857.76 1108.69 3860.15 1107.5 3863.72 1107.5 3866.1 1108.69 3888.74 1132.4 3888.74 1132.4 3888.74 1132.4 3889.93 1133.59 3889.93 1133.59 3889.93 1133.59 3893.5 1151.37 3893.5 1151.37 3893.5 1151.37 3874.44 1151.37 3874.44 1151.37 3874.44 1151.37 3879.21 1169.16 3879.21 1169.16 3879.21 1169.16 3860.15 1169.16 3860.15 1169.16 3860.15 1169.16 3863.72 1186.94 3863.72 1186.94 3863.72 1186.94 3844.66 1186.94 3844.66 1186.94 3844.66 1186.94 3848.24 1204.73 3848.24 1204.73 3848.24 1204.73 3829.18 1204.73 3829.18 1204.73 3829.18 1204.73 3833.94 1222.51 3833.94 1222.51 3833.94 1222.51 3814.88 1222.51 3814.88 1222.51 3814.88 1222.51 3818.46 1240.3 3818.46 1240.3 3818.46 1240.3 3806.54 1240.3 3806.54 1240.3 3806.54 1240.3M3732.69 1223.7C3770.81 1184.57 3770.81 1184.57 3770.81 1184.57 3772 1183.39 3774.38 1183.39 3775.57 1184.57 3782.72 1194.06 3794.63 1203.54 3800.59 1213.03 3804.16 1220.14 3801.78 1247.41 3799.4 1248.6 3766.04 1272.31 3766.04 1272.31 3766.04 1272.31 3764.85 1273.5 3762.47 1273.5 3761.28 1272.31 3732.69 1228.44 3732.69 1228.44 3732.69 1228.44 3731.5 1226.07 3731.5 1224.89 3732.69 1223.7ZM3754.13 1222.51C3763.66 1213.03 3763.66 1213.03 3763.66 1213.03 3764.85 1210.66 3767.24 1211.84 3768.43 1213.03 3780.34 1240.3 3780.34 1240.3 3780.34 1240.3 3781.53 1242.67 3781.53 1245.04 3780.34 1246.23 3767.24 1253.34 3767.24 1253.34 3767.24 1253.34 3766.04 1254.53 3764.85 1254.53 3763.66 1252.16 3752.94 1228.44 3752.94 1228.44 3752.94 1228.44 3752.94 1226.07 3752.94 1223.7 3754.13 1222.51Z" stroke="#595959" stroke-width="6.875" stroke-linecap="round" stroke-linejoin="round" stroke-miterlimit="10" fill="none" fill-rule="evenodd"/></g></svg>