<svg width="165" height="164" xmlns="http://www.w3.org/2000/svg" xmlns:xlink="http://www.w3.org/1999/xlink" xml:space="preserve" overflow="hidden"><g transform="translate(-2159 -1515)"><path d="M2296.23 1521.06C2284.29 1517.5 2271.16 1519.87 2261.6 1529.37 2253.25 1537.67 2249.66 1550.72 2252.05 1561.4 2169.66 1644.46 2169.66 1644.46 2169.66 1644.46 2162.5 1650.4 2162.5 1662.26 2169.66 1669.38 2169.66 1669.38 2169.66 1669.38 2169.66 1669.38 2176.83 1676.5 2187.57 1676.5 2194.74 1669.38 2278.32 1586.32 2278.32 1586.32 2278.32 1586.32 2289.07 1589.88 2301.01 1586.32 2310.56 1578.02 2320.11 1568.52 2322.5 1555.47 2318.92 1543.6 2308.17 1554.28 2308.17 1554.28 2308.17 1554.28 2302.2 1561.4 2302.2 1561.4 2302.2 1561.4 2292.65 1559.03 2292.65 1559.03 2292.65 1559.03 2283.1 1555.47 2283.1 1555.47 2283.1 1555.47 2280.71 1547.16 2280.71 1547.16 2280.71 1547.16 2278.32 1537.67 2278.32 1537.67 2278.32 1537.67 2285.48 1531.74 2285.48 1531.74 2285.48 1531.74 2296.23 1521.06 2296.23 1521.06 2296.23 1521.06Z" stroke="#595959" stroke-width="6.875" stroke-linecap="round" stroke-linejoin="round" stroke-miterlimit="10" fill="none" fill-rule="evenodd"/><path d="M2279.62 1616.5C2308.32 1644.74 2308.32 1644.74 2308.32 1644.74 2315.5 1650.62 2315.5 1662.38 2308.32 1669.44 2308.32 1669.44 2308.32 1669.44 2308.32 1669.44 2301.15 1676.5 2289.19 1676.5 2283.21 1669.44 2254.5 1641.21 2254.5 1641.21 2254.5 1641.21 2279.62 1616.5 2279.62 1616.5 2279.62 1616.5Z" stroke="#595959" stroke-width="6.875" stroke-linecap="round" stroke-linejoin="round" stroke-miterlimit="10" fill="none" fill-rule="evenodd"/><path d="M2191.5 1553.5 2225.5 1588.5" stroke="#595959" stroke-width="6.875" stroke-linecap="round" stroke-linejoin="round" stroke-miterlimit="10" fill="none" fill-rule="evenodd"/><path d="M2251.5 1612.5 2267.5 1629.5" stroke="#595959" stroke-width="6.875" stroke-linecap="round" stroke-linejoin="round" stroke-miterlimit="10" fill="none" fill-rule="evenodd"/><path d="M2162.5 1534.36 2173.61 1523.5 2200.5 1538.93 2178.28 1559.5 2162.5 1534.36 2162.5 1534.36Z" stroke="#595959" stroke-width="6.875" stroke-linecap="round" stroke-linejoin="round" stroke-miterlimit="10" fill="none" fill-rule="evenodd"/></g></svg>