<svg width="160" height="164" xmlns="http://www.w3.org/2000/svg" xmlns:xlink="http://www.w3.org/1999/xlink" xml:space="preserve" overflow="hidden"><g transform="translate(-2864 -363)"><path d="M3020.5 388.5 2995.5 388.5M3020.5 417.5 2995.5 417.5" stroke="#595959" stroke-width="6.875" stroke-linecap="round" stroke-linejoin="round" stroke-miterlimit="10" fill="none" fill-rule="evenodd"/><path d="M2993.5 439.5C2993.5 366.5 2993.5 366.5 2993.5 366.5M2988.82 373.68C2977.11 373.68 2977.11 373.68 2977.11 373.68 2977.11 373.68 2977.11 373.68 2977.11 373.68 2977.11 373.68 2977.11 373.68 2977.11 373.68 2966.57 373.68 2945.5 385.648 2945.5 392.828 2945.5 413.172 2945.5 413.172 2945.5 413.172 2945.5 420.353 2966.57 432.32 2977.11 432.32 2977.11 432.32 2977.11 432.32 2977.11 432.32 2977.11 432.32 2977.11 432.32 2977.11 432.32 2988.82 432.32 2988.82 432.32 2988.82 432.32" stroke="#595959" stroke-width="6.875" stroke-linecap="round" stroke-linejoin="round" stroke-miterlimit="10" fill="none" fill-rule="evenodd"/><path d="M2872.28 522.312C2976.27 523.5 2976.27 523.5 2976.27 523.5 2987.03 523.5 2995.4 521.124 3002.57 518.748 3009.74 515.183 3014.52 510.431 3016.91 505.678 3018.11 504.49 3019.3 502.114 3019.3 499.738 3020.5 498.55 3020.5 496.173 3020.5 493.797 3020.5 491.421 3020.5 489.045 3020.5 487.856 3019.3 485.48 3019.3 483.104 3018.11 481.916 3015.72 475.975 3010.94 471.223 3004.96 467.658 2998.98 465.282 2991.81 462.906 2984.64 462.906 2971.49 462.906 2958.34 462.906 2945.2 462.906 2945.2 462.906 2945.2 462.906 2945.2 462.906 2945.2 462.906 2945.2 462.906 2945.2 462.906 2945.2 462.906 2945.2 462.906 2945.2 462.906 2939.22 462.906 2938.02 462.906 2910.53 462.906 2900.97 462.906 2893.8 461.718 2886.62 458.154 2886.62 458.154 2886.62 458.154 2886.62 458.154 2879.45 455.777 2873.48 451.025 2871.09 446.272 2869.89 443.896 2868.7 441.52 2867.5 439.144 2867.5 437.956 2867.5 435.579 2867.5 433.203 2867.5 430.827 2867.5 428.451 2867.5 426.074 2868.7 424.886 2869.89 422.51 2871.09 420.134 2873.48 415.381 2879.45 410.629 2886.62 407.064 2892.6 404.688 2899.77 403.5 2909.34 403.5 2909.34 403.5 2909.34 403.5 2909.34 403.5 2946.39 403.5 2946.39 403.5 2946.39 403.5" stroke="#595959" stroke-width="6.875" stroke-linecap="round" stroke-linejoin="round" stroke-miterlimit="10" fill="none" fill-rule="evenodd"/></g></svg>