<svg width="170" height="170" xmlns="http://www.w3.org/2000/svg" xmlns:xlink="http://www.w3.org/1999/xlink" xml:space="preserve" overflow="hidden"><g transform="translate(-2166 -1929)"><path d="M2229.44 2006.81C2229.44 1985.52 2229.44 1985.52 2229.44 1985.52 2229.44 1973.69 2210.5 1973.69 2210.5 1986.7 2210.5 2015.09 2210.5 2015.09 2210.5 2015.09 2211.68 2050.57 2211.68 2050.57 2211.68 2050.57 2212.87 2075.4 2269.7 2082.5 2283.9 2061.21 2309.95 2028.1 2309.95 2028.1 2309.95 2028.1 2313.5 2023.37 2311.13 2017.45 2307.58 2015.09 2302.84 2015.09 2294.56 2016.27 2292.19 2019.82 2282.72 2031.64 2282.72 2031.64 2282.72 2031.64 2282.72 1972.51 2282.72 1972.51 2282.72 1972.51 2282.72 1963.05 2264.96 1959.5 2264.96 1973.69 2264.96 2000.89 2264.96 2000.89 2264.96 2000.89" stroke="#595959" stroke-width="6.875" stroke-linecap="round" stroke-linejoin="round" stroke-miterlimit="10" fill="none" fill-rule="evenodd"/><path d="M2245.5 2000.5C2245.5 1963.6 2245.5 1963.6 2245.5 1963.6 2245.5 1952.88 2264.25 1950.5 2265.5 1963.6 2265.5 1999.31 2265.5 1999.31 2265.5 1999.31" stroke="#595959" stroke-width="6.875" stroke-linecap="round" stroke-linejoin="round" stroke-miterlimit="10" fill="none" fill-rule="evenodd"/><path d="M2227.5 1985.5C2227.5 1972.5 2227.5 1972.5 2227.5 1972.5 2227.5 1961.86 2245.5 1959.5 2245.5 1972.5" stroke="#595959" stroke-width="6.875" stroke-linecap="round" stroke-linejoin="round" stroke-miterlimit="10" fill="none" fill-rule="evenodd"/><path d="M2269.5 2007C2253.05 2003.5 2237.77 2003.5 2222.5 2010.5" stroke="#595959" stroke-width="6.875" stroke-linecap="round" stroke-linejoin="round" stroke-miterlimit="10" fill="none" fill-rule="evenodd"/><path d="M2282.5 2031.5C2267.42 2032.71 2258.14 2037.57 2253.5 2048.5" stroke="#595959" stroke-width="6.875" stroke-linecap="round" stroke-linejoin="round" stroke-miterlimit="10" fill="none" fill-rule="evenodd"/><path d="M2218.11 1932.5 2251.86 1932.5 2285.03 1932.5 2308.48 1956.52 2332.5 1981.11 2332.5 2014.29 2331.36 2048.03 2307.33 2071.48 2283.89 2095.5 2250.71 2095.5 2215.83 2094.36 2193.52 2070.34 2169.5 2046.89 2169.5 2013.14 2169.5 1978.83 2194.66 1956.52 2218.11 1932.5 2218.11 1932.5Z" stroke="#595959" stroke-width="6.875" stroke-linecap="round" stroke-linejoin="round" stroke-miterlimit="10" fill="none" fill-rule="evenodd"/></g></svg>