<svg width="152" height="170" xmlns="http://www.w3.org/2000/svg" xmlns:xlink="http://www.w3.org/1999/xlink" xml:space="preserve" overflow="hidden"><g transform="translate(-1411 -731)"><path d="M0 0 0.000360892 12" stroke="#595959" stroke-width="6.875" stroke-linecap="round" stroke-linejoin="round" stroke-miterlimit="10" fill="none" fill-rule="evenodd" transform="matrix(1 0 0 -1 1483.5 761.5)"/><path d="M1476.5 742C1476.5 737.858 1479.63 734.5 1483.5 734.5 1487.37 734.5 1490.5 737.858 1490.5 742 1490.5 746.142 1487.37 749.5 1483.5 749.5 1479.63 749.5 1476.5 746.142 1476.5 742Z" stroke="#595959" stroke-width="6.875" stroke-linecap="round" stroke-linejoin="round" stroke-miterlimit="10" fill="none" fill-rule="evenodd"/><path d="M1518.5 742.5 1492.05 742.5M1475.38 742.5 1449.5 742.5" stroke="#595959" stroke-width="6.875" stroke-linecap="round" stroke-linejoin="round" stroke-miterlimit="10" fill="none" fill-rule="evenodd"/><path d="M1543.61 859.5C1537.55 876.125 1531.5 882.062 1531.5 888 1531.5 892.75 1536.34 897.5 1543.61 897.5 1549.66 897.5 1554.5 892.75 1554.5 888 1554.5 882.062 1543.61 874.937 1543.61 859.5Z" stroke="#595959" stroke-width="6.875" stroke-linecap="round" stroke-linejoin="round" stroke-miterlimit="10" fill="none" fill-rule="evenodd"/><path d="M1414.5 797.581C1414.5 826.446 1414.5 826.446 1414.5 826.446M1419.25 801.189C1463.23 801.189 1463.23 801.189 1463.23 801.189 1464.42 799.986 1466.8 798.784 1466.8 797.581 1466.8 780.743 1466.8 780.743 1466.8 780.743M1460.85 775.932C1507.2 775.932 1507.2 775.932 1507.2 775.932M1500.07 780.743C1500.07 797.581 1500.07 797.581 1500.07 797.581 1501.26 798.784 1502.45 799.986 1503.64 801.189 1533.35 801.189 1547.61 803.594 1552.37 827.649 1553.56 832.459 1553.56 839.676 1553.56 845.689M1532.16 845.689C1532.16 840.878 1532.16 833.662 1532.16 831.257 1529.79 825.243 1526.22 822.838 1517.9 822.838 1507.2 822.838 1504.83 834.865 1483.43 834.865 1462.04 834.865 1459.66 822.838 1450.16 822.838 1419.25 822.838 1419.25 822.838 1419.25 822.838M1472.74 772.324C1472.74 765.108 1472.74 765.108 1472.74 765.108 1472.74 762.703 1473.93 761.5 1476.3 761.5 1478.68 761.5 1478.68 761.5 1478.68 761.5 1489.38 761.5 1489.38 761.5 1489.38 761.5M1489.38 761.5C1490.57 761.5 1490.57 761.5 1490.57 761.5 1492.94 761.5 1495.32 763.905 1495.32 765.108 1495.32 772.324 1495.32 772.324 1495.32 772.324M1526.22 850.5C1559.5 850.5 1559.5 850.5 1559.5 850.5" stroke="#595959" stroke-width="6.875" stroke-linecap="round" stroke-linejoin="round" stroke-miterlimit="10" fill="none" fill-rule="evenodd"/></g></svg>