<svg width="164" height="164" xmlns="http://www.w3.org/2000/svg" xmlns:xlink="http://www.w3.org/1999/xlink" xml:space="preserve" overflow="hidden"><g transform="translate(-1762 -710)"><path d="M1880.87 837.197C1879.68 870.5 1879.68 870.5 1879.68 870.5 1799.99 870.5 1799.99 870.5 1799.99 870.5 1808.32 834.818 1819.02 816.977 1771.45 808.651 1767.88 808.651 1765.5 805.083 1765.5 801.515 1765.5 778.917 1765.5 759.886 1765.5 736.099 1813.08 736.099 1813.08 736.099 1813.08 736.099 1813.08 783.674 1813.08 783.674 1813.08 783.674 1813.08 788.432 1815.45 792 1821.4 792 1903.47 792 1903.47 792 1903.47 792 1922.5 792 1922.5 792 1922.5 792 1922.5 793.189 1922.5 794.379 1922.5 795.568 1922.5 815.788 1898.71 833.629 1870.17 833.629 1851.14 833.629 1833.3 825.303 1824.97 814.598M1826.16 778.917C1921.31 778.917 1921.31 778.917 1921.31 778.917M1765.5 732.53C1765.5 726.583 1765.5 726.583 1765.5 726.583 1765.5 724.205 1767.88 721.826 1770.26 721.826 1783.34 721.826 1783.34 721.826 1783.34 721.826 1783.34 717.068 1783.34 717.068 1783.34 717.068 1783.34 714.69 1785.72 713.5 1788.1 713.5 1790.48 713.5 1790.48 713.5 1790.48 713.5 1792.86 713.5 1795.23 714.69 1795.23 717.068 1795.23 721.826 1795.23 721.826 1795.23 721.826 1808.32 721.826 1808.32 721.826 1808.32 721.826 1810.7 721.826 1813.08 724.205 1813.08 726.583 1813.08 732.53 1813.08 732.53 1813.08 732.53" stroke="#595959" stroke-width="6.875" stroke-linecap="round" stroke-linejoin="round" stroke-miterlimit="10" fill="none" fill-rule="evenodd"/></g></svg>