<svg width="164" height="154" xmlns="http://www.w3.org/2000/svg" xmlns:xlink="http://www.w3.org/1999/xlink" xml:space="preserve" overflow="hidden"><g transform="translate(-3328 -706)"><path d="M3332.69 776.427C3332.69 803.915 3332.69 803.915 3332.69 803.915 3332.69 834.988 3332.69 834.988 3332.69 834.988 3332.69 840.964 3338.64 846.939 3344.58 846.939 3358.86 846.939 3358.86 846.939 3358.86 846.939 3358.86 856.5 3358.86 856.5 3358.86 856.5 3387.4 856.5 3387.4 856.5 3387.4 856.5 3387.4 846.939 3387.4 846.939 3387.4 846.939 3434.98 846.939 3434.98 846.939 3434.98 846.939 3434.98 856.5 3434.98 856.5 3434.98 856.5 3463.52 856.5 3463.52 856.5 3463.52 856.5 3463.52 846.939 3463.52 846.939 3463.52 846.939 3475.42 846.939 3475.42 846.939 3475.42 846.939 3481.36 846.939 3488.5 843.354 3488.5 834.988 3488.5 777.622 3488.5 777.622 3488.5 777.622M3463.52 777.622C3463.52 790.768 3463.52 790.768 3463.52 790.768 3434.98 790.768 3434.98 790.768 3434.98 790.768 3434.98 776.427 3434.98 776.427 3434.98 776.427M3387.4 776.427C3387.4 790.768 3387.4 790.768 3387.4 790.768 3358.86 790.768 3358.86 790.768 3358.86 790.768 3358.86 776.427 3358.86 776.427 3358.86 776.427M3332.69 774.037C3393.35 774.037 3427.84 774.037 3488.5 774.037 3488.5 770.451 3488.5 744.159 3487.31 741.768 3484.93 732.207 3476.61 733.402 3467.09 733.402 3354.1 733.402 3354.1 733.402 3354.1 733.402 3344.58 733.402 3336.26 732.207 3332.69 740.573 3331.5 744.159 3331.5 770.451 3332.69 774.037ZM3437.36 729.817C3437.36 721.451 3437.36 721.451 3437.36 721.451 3437.36 715.476 3431.41 709.5 3425.46 709.5 3394.54 709.5 3394.54 709.5 3394.54 709.5 3389.78 709.5 3383.83 716.671 3383.83 721.451 3383.83 729.817 3383.83 729.817 3383.83 729.817" stroke="#595959" stroke-width="6.875" stroke-linecap="round" stroke-linejoin="round" stroke-miterlimit="10" fill="none" fill-rule="evenodd"/></g></svg>