<svg width="169" height="165" xmlns="http://www.w3.org/2000/svg" xmlns:xlink="http://www.w3.org/1999/xlink" xml:space="preserve" overflow="hidden"><g transform="translate(-1465 -1911)"><path d="M0 0 0.000360892 112" stroke="#595959" stroke-width="6.875" stroke-linecap="round" stroke-linejoin="round" stroke-miterlimit="10" fill="none" fill-rule="evenodd" transform="matrix(1 0 0 -1 1506.5 2072.5)"/><path d="M0 0 0.000360892 112" stroke="#595959" stroke-width="6.875" stroke-linecap="round" stroke-linejoin="round" stroke-miterlimit="10" fill="none" fill-rule="evenodd" transform="matrix(1 0 0 -1 1530.5 2072.5)"/><path d="M1529.33 2072.5 1506.5 2072.5 1530.5 2049.64 1506.5 2027.36 1530.5 2005.64 1506.5 1983.36 1530.5 1960.5" stroke="#595959" stroke-width="6.875" stroke-linecap="round" stroke-linejoin="round" stroke-miterlimit="10" fill="none" fill-rule="evenodd"/><path d="M0 0 29.9999 6.99987" stroke="#595959" stroke-width="6.875" stroke-linecap="round" stroke-linejoin="round" stroke-miterlimit="10" fill="none" fill-rule="evenodd" transform="matrix(1 0 0 -1 1468.5 1959.5)"/><path d="M0 0 87 22" stroke="#595959" stroke-width="6.875" stroke-linecap="round" stroke-linejoin="round" stroke-miterlimit="10" fill="none" fill-rule="evenodd" transform="matrix(1 0 0 -1 1543.5 1940.5)"/><path d="M1605.5 1923.5 1605.5 1957.5" stroke="#595959" stroke-width="6.875" stroke-linecap="round" stroke-linejoin="round" stroke-miterlimit="10" fill="none" fill-rule="evenodd"/><path d="M1507.77 1931.5C1533.23 1931.5 1533.23 1931.5 1533.23 1931.5 1538.08 1931.5 1540.5 1934.98 1540.5 1938.46 1540.5 1953.54 1540.5 1953.54 1540.5 1953.54 1540.5 1957.02 1538.08 1960.5 1533.23 1960.5 1507.77 1960.5 1507.77 1960.5 1507.77 1960.5 1504.14 1960.5 1500.5 1957.02 1500.5 1953.54 1500.5 1938.46 1500.5 1938.46 1500.5 1938.46 1500.5 1934.98 1504.14 1931.5 1507.77 1931.5Z" stroke="#595959" stroke-width="6.875" stroke-linecap="round" stroke-linejoin="round" stroke-miterlimit="10" fill="none" fill-rule="evenodd"/><path d="M1586.5 1984.5 1605.5 1954.5 1624.5 1984.5" stroke="#595959" stroke-width="6.875" stroke-linecap="round" stroke-linejoin="round" stroke-miterlimit="10" fill="none" fill-rule="evenodd"/><path d="M1580.5 1989.5 1630.5 1989.5 1630.5 2014.5 1580.5 2014.5 1580.5 1989.5 1580.5 1989.5Z" stroke="#595959" stroke-width="6.875" stroke-linecap="round" stroke-linejoin="round" stroke-miterlimit="10" fill="none" fill-rule="evenodd"/><path d="M1510.5 1927.5 1518.63 1914.5 1528.5 1927.5" stroke="#595959" stroke-width="6.875" stroke-linecap="round" stroke-linejoin="round" stroke-miterlimit="10" fill="none" fill-rule="evenodd"/></g></svg>