<svg width="167" height="176" xmlns="http://www.w3.org/2000/svg" xmlns:xlink="http://www.w3.org/1999/xlink" xml:space="preserve" overflow="hidden"><g transform="translate(-2957 -1500)"><path d="M3062.88 1532.19C3097.57 1504.88 3097.57 1504.88 3097.57 1504.88 3099.96 1502.5 3104.75 1503.69 3107.14 1506.06 3119.11 1520.31 3119.11 1520.31 3119.11 1520.31 3121.5 1522.69 3120.3 1527.44 3117.91 1528.62 3079.62 1554.75 3079.62 1554.75 3079.62 1554.75 3073.64 1558.31 3066.46 1559.5 3061.68 1553.56 3059.29 1551.19 3059.29 1551.19 3059.29 1551.19 3054.5 1545.25 3056.89 1536.94 3062.88 1532.19Z" stroke="#595959" stroke-width="6.875" stroke-linecap="round" stroke-linejoin="round" stroke-miterlimit="10" fill="none" fill-rule="evenodd"/><path d="M3059.5 1553.5C3047.45 1564.33 3048.65 1561.92 3048.65 1578.77 3048.65 1587.19 3048.65 1577.56 3048.65 1585.98 3048.65 1601.62 3049.86 1599.22 3036.6 1610.05 3032.99 1613.66 3016.12 1626.89 3012.5 1630.5" stroke="#595959" stroke-width="6.875" stroke-linecap="round" stroke-linejoin="round" stroke-miterlimit="10" fill="none" fill-rule="evenodd"/><path d="M3019.21 1660.33C2994.05 1666.32 2994.05 1666.32 2994.05 1666.32 2970.09 1673.5 2970.09 1673.5 2970.09 1673.5 2967.69 1673.5 2965.29 1673.5 2964.09 1672.3 2961.7 1669.91 2960.5 1668.71 2961.7 1666.32 2978.47 1630.4 2978.47 1630.4 2978.47 1630.4 2995.25 1593.29 2995.25 1593.29 2995.25 1593.29 2996.45 1589.7 3002.44 1588.5 3009.63 1588.5 3091.1 1632.8 3091.1 1632.8 3091.1 1632.8 3093.5 1637.58 3091.1 1641.18 3083.91 1642.37 3051.56 1651.95 3051.56 1651.95 3051.56 1651.95 3019.21 1660.33 3019.21 1660.33 3019.21 1660.33Z" stroke="#595959" stroke-width="6.875" stroke-linecap="round" stroke-linejoin="round" stroke-miterlimit="10" fill="none" fill-rule="evenodd"/></g></svg>