<svg width="164" height="163" xmlns="http://www.w3.org/2000/svg" xmlns:xlink="http://www.w3.org/1999/xlink" xml:space="preserve" overflow="hidden"><g transform="translate(-2508 -690)"><path d="M2660.17 779.081C2650.66 807.726 2623.3 828.016 2590 828.016 2556.7 828.016 2528.15 807.726 2519.83 779.081M2668.5 775.5C2617.36 775.5 2561.45 775.5 2511.5 775.5M2604.27 830.403C2604.27 845.919 2604.27 845.919 2604.27 845.919 2604.27 847.113 2601.89 849.5 2600.7 849.5 2579.3 849.5 2579.3 849.5 2579.3 849.5 2576.92 849.5 2575.73 847.113 2575.73 845.919 2575.73 830.403 2575.73 830.403 2575.73 830.403" stroke="#595959" stroke-width="6.875" stroke-linecap="round" stroke-linejoin="round" stroke-miterlimit="10" fill="none" fill-rule="evenodd"/><path d="M2590.5 770.5C2590.5 714.823 2590.5 714.823 2590.5 714.823 2590.5 702.977 2600.01 693.5 2613.09 693.5 2613.09 693.5 2613.09 693.5 2613.09 693.5 2624.99 693.5 2634.5 702.977 2634.5 714.823" stroke="#595959" stroke-width="6.875" stroke-linecap="round" stroke-linejoin="round" stroke-miterlimit="10" fill="none" fill-rule="evenodd"/><path d="M2633.5 716.5 2637.5 716.5" stroke="#595959" stroke-width="6.875" stroke-linecap="round" stroke-linejoin="round" stroke-miterlimit="10" fill="none" fill-rule="evenodd"/><path d="M2571.09 773.5 2562.5 759.214 2573.39 753.5 2583.7 772.357M2608.91 773.5 2617.5 759.214 2606.61 753.5 2595.73 772.357" stroke="#595959" stroke-width="6.875" stroke-linecap="round" stroke-linejoin="round" stroke-miterlimit="10" fill="none" fill-rule="evenodd"/></g></svg>