<svg width="165" height="164" xmlns="http://www.w3.org/2000/svg" xmlns:xlink="http://www.w3.org/1999/xlink" xml:space="preserve" overflow="hidden"><g transform="translate(-3691 -364)"><path d="M3700.44 367.5C3846.56 367.5 3846.56 367.5 3846.56 367.5 3848.94 367.5 3852.5 369.879 3852.5 372.258 3852.5 519.742 3852.5 519.742 3852.5 519.742 3852.5 522.121 3848.94 524.5 3846.56 524.5 3700.44 524.5 3700.44 524.5 3700.44 524.5 3696.88 524.5 3694.5 522.121 3694.5 519.742 3694.5 372.258 3694.5 372.258 3694.5 372.258 3694.5 369.879 3696.88 367.5 3700.44 367.5ZM3772.91 367.5C3772.91 524.5 3772.91 524.5 3772.91 524.5M3709.94 382.962C3757.46 382.962 3757.46 382.962 3757.46 382.962 3757.46 509.038 3757.46 509.038 3757.46 509.038 3709.94 509.038 3709.94 509.038 3709.94 509.038 3709.94 382.962 3709.94 382.962 3709.94 382.962Z" stroke="#595959" stroke-width="6.875" stroke-linecap="round" stroke-linejoin="round" stroke-miterlimit="10" fill="none" fill-rule="evenodd"/><path d="M3789.5 383.5 3835.5 383.5 3835.5 416.5 3789.5 416.5 3789.5 383.5 3789.5 383.5Z" stroke="#595959" stroke-width="6.875" stroke-linecap="round" stroke-linejoin="round" stroke-miterlimit="10" fill="none" fill-rule="evenodd"/><path d="M3789.5 435.5 3835.5 435.5 3835.5 509.5 3789.5 509.5 3789.5 435.5 3789.5 435.5Z" stroke="#595959" stroke-width="6.875" stroke-linecap="round" stroke-linejoin="round" stroke-miterlimit="10" fill="none" fill-rule="evenodd"/></g></svg>